<?xml version="1.0" encoding="UTF-8" standalone="no"?><!DOCTYPE svg PUBLIC "-//W3C//DTD SVG 1.1//EN" "http://www.w3.org/Graphics/SVG/1.1/DTD/svg11.dtd"><svg width="100%" height="100%" viewBox="0 0 862 152" version="1.1" xmlns="http://www.w3.org/2000/svg" xmlns:xlink="http://www.w3.org/1999/xlink" xml:space="preserve" xmlns:serif="http://www.serif.com/" style="fill-rule:evenodd;clip-rule:evenodd;stroke-linejoin:round;stroke-miterlimit:2;"><path d="M47.017,78.743c2.24,-0 3.36,1.68 3.36,5.04c-0,6.32 -4.96,9.48 -14.88,9.48c-1.92,-0 -4.68,-0.36 -8.28,-1.08c1.04,4.96 1.9,10.46 2.58,16.5c0.68,6.04 1.02,11.02 1.02,14.94c-0,8.64 -1.4,15.24 -4.2,19.8c-2.8,4.56 -6.48,6.84 -11.04,6.84c-5.76,-0 -9.86,-4.08 -12.3,-12.24c-2.44,-8.16 -3.66,-20.48 -3.66,-36.96c-0,-15.36 1.66,-30.94 4.98,-46.74c3.32,-15.8 7.88,-28.88 13.68,-39.24c5.8,-10.36 12.18,-15.54 19.14,-15.54c3.76,-0 6.7,1.68 8.82,5.04c2.12,3.36 3.18,7.88 3.18,13.56c-0,18.8 -11.24,39.28 -33.72,61.44c-0.8,7.84 -1.2,14.72 -1.2,20.64c-0,8.24 0.28,16.7 0.84,25.38c0.56,8.68 1.48,13.02 2.76,13.02c2.4,-0 3.6,-4.16 3.6,-12.48c-0,-6.24 -0.42,-12.28 -1.26,-18.12c-0.84,-5.84 -1.98,-12 -3.42,-18.48c-0.08,-1.04 0.26,-2.36 1.02,-3.96c0.76,-1.6 1.7,-3 2.82,-4.2c1.12,-1.2 2.12,-1.8 3,-1.8c1.6,-0 3.52,0.08 5.76,0.24c0.72,0.08 1.56,0.12 2.52,0.12c3.2,-0 6.76,-0.28 10.68,-0.84c0.64,-0.08 1.32,-0.16 2.04,-0.24c0.72,-0.08 1.44,-0.12 2.16,-0.12Zm-12.12,-67.32c-1.44,-0 -3.22,2.44 -5.34,7.32c-2.12,4.88 -4.22,11.34 -6.3,19.38c-2.08,8.04 -3.88,16.54 -5.4,25.5c6.4,-7.28 11.32,-14.86 14.76,-22.74c3.44,-7.88 5.2,-15.26 5.28,-22.14c-0,-4.88 -1,-7.32 -3,-7.32Z" style="fill:#fff;fill-rule:nonzero;"/><path d="M102.457,75.503c1.04,-0 1.84,0.52 2.4,1.56c0.56,1.04 0.84,2.36 0.84,3.96c-0,3.84 -1.16,6.12 -3.48,6.84c-4.8,1.68 -10.08,2.64 -15.84,2.88c-1.52,6.72 -4.52,12.1 -9,16.14c-4.48,4.04 -9.56,6.06 -15.24,6.06c-4.8,-0 -8.9,-1.16 -12.3,-3.48c-3.4,-2.32 -5.98,-5.4 -7.74,-9.24c-1.76,-3.84 -2.64,-8 -2.64,-12.48c-0,-6.08 1.16,-11.5 3.48,-16.26c2.32,-4.76 5.52,-8.48 9.6,-11.16c4.08,-2.68 8.6,-4.02 13.56,-4.02c6.08,-0 10.98,2.1 14.7,6.3c3.72,4.2 5.9,9.38 6.54,15.54c3.76,-0.24 8.24,-1.04 13.44,-2.4c0.64,-0.16 1.2,-0.24 1.68,-0.24Zm-39.36,24.72c2.56,-0 4.78,-1.04 6.66,-3.12c1.88,-2.08 3.14,-5.08 3.78,-9c-2.48,-1.68 -4.38,-3.88 -5.7,-6.6c-1.32,-2.72 -1.98,-5.6 -1.98,-8.64c-0,-1.28 0.12,-2.56 0.36,-3.84l-0.6,-0c-3.2,-0 -5.86,1.54 -7.98,4.62c-2.12,3.08 -3.18,7.42 -3.18,13.02c-0,4.4 0.86,7.76 2.58,10.08c1.72,2.32 3.74,3.48 6.06,3.48Z" style="fill:#fff;fill-rule:nonzero;"/><path d="M103.897,112.943c-3.04,-0 -5.18,-1.6 -6.42,-4.8c-1.24,-3.2 -1.86,-8.32 -1.86,-15.36c-0,-10.4 1.48,-20.28 4.44,-29.64c0.72,-2.32 1.9,-4.02 3.54,-5.1c1.64,-1.08 3.94,-1.62 6.9,-1.62c1.6,-0 2.72,0.2 3.36,0.6c0.64,0.4 0.96,1.16 0.96,2.28c-0,1.28 -0.6,4.16 -1.8,8.64c-0.8,3.2 -1.44,6 -1.92,8.4c-0.48,2.4 -0.88,5.36 -1.2,8.88c2.64,-6.88 5.6,-12.48 8.88,-16.8c3.28,-4.32 6.5,-7.4 9.66,-9.24c3.16,-1.84 6.06,-2.76 8.7,-2.76c5.2,-0 7.8,2.6 7.8,7.8c-0,1.04 -0.36,3.56 -1.08,7.56c-0.64,3.2 -0.96,5.2 -0.96,6c-0,2.8 1,4.2 3,4.2c2.24,-0 5.12,-1.76 8.64,-5.28c1.04,-1.04 2.12,-1.56 3.24,-1.56c1.04,-0 1.86,0.46 2.46,1.38c0.6,0.92 0.9,2.14 0.9,3.66c-0,2.96 -0.8,5.28 -2.4,6.96c-2.24,2.32 -4.86,4.3 -7.86,5.94c-3,1.64 -6.18,2.46 -9.54,2.46c-4.24,-0 -7.46,-1.08 -9.66,-3.24c-2.2,-2.16 -3.3,-5.08 -3.3,-8.76c-0,-1.2 0.12,-2.4 0.36,-3.6c0.16,-1.6 0.24,-2.68 0.24,-3.24c-0,-1.28 -0.44,-1.92 -1.32,-1.92c-1.2,-0 -2.78,1.34 -4.74,4.02c-1.96,2.68 -3.9,6.22 -5.82,10.62c-1.92,4.4 -3.48,9.04 -4.68,13.92c-0.88,3.76 -1.9,6.3 -3.06,7.62c-1.16,1.32 -2.98,1.98 -5.46,1.98Z" style="fill:#fff;fill-rule:nonzero;"/><path d="M162.217,112.943c-3.6,-0 -6.54,-1.66 -8.82,-4.98c-2.28,-3.32 -3.42,-7.46 -3.42,-12.42c-0,-6 0.4,-11.5 1.2,-16.5c0.8,-5 2.12,-10.3 3.96,-15.9c0.8,-2.4 1.92,-4.12 3.36,-5.16c1.44,-1.04 3.72,-1.56 6.84,-1.56c1.76,-0 2.98,0.28 3.66,0.84c0.68,0.56 1.02,1.4 1.02,2.52c-0,0.64 -0.44,2.8 -1.32,6.48c-0.8,2.96 -1.44,5.64 -1.92,8.04c-1.6,8.4 -2.4,14 -2.4,16.8c-0,1.68 0.2,2.86 0.6,3.54c0.4,0.68 1.04,1.02 1.92,1.02c1.2,-0 2.7,-1.2 4.5,-3.6c1.8,-2.4 3.72,-6.04 5.76,-10.92c2.04,-4.88 4.02,-10.88 5.94,-18c0.64,-2.4 1.62,-4.12 2.94,-5.16c1.32,-1.04 3.3,-1.56 5.94,-1.56c1.84,-0 3.12,0.22 3.84,0.66c0.72,0.44 1.08,1.26 1.08,2.46c-0,2 -1,7.48 -3,16.44c-2.24,10.24 -3.36,16.56 -3.36,18.96c-0,1.52 0.32,2.7 0.96,3.54c0.64,0.84 1.48,1.26 2.52,1.26c1.6,-0 3.5,-0.98 5.7,-2.94c2.2,-1.96 5.14,-5.14 8.82,-9.54c0.96,-1.12 2.04,-1.68 3.24,-1.68c1.04,-0 1.86,0.48 2.46,1.44c0.6,0.96 0.9,2.28 0.9,3.96c-0,3.2 -0.76,5.68 -2.28,7.44c-3.44,4.24 -7.14,7.72 -11.1,10.44c-3.96,2.72 -8.46,4.08 -13.5,4.08c-3.84,-0 -6.66,-1.48 -8.46,-4.44c-1.8,-2.96 -2.7,-7.12 -2.7,-12.48c-1.36,5.44 -3.4,9.62 -6.12,12.54c-2.72,2.92 -5.64,4.38 -8.76,4.38Z" style="fill:#fff;fill-rule:nonzero;"/><path d="M213.937,112.943c-3.04,-0 -5.18,-1.6 -6.42,-4.8c-1.24,-3.2 -1.86,-8.32 -1.86,-15.36c-0,-10.4 1.48,-20.28 4.44,-29.64c0.72,-2.32 1.9,-4.02 3.54,-5.1c1.64,-1.08 3.94,-1.62 6.9,-1.62c1.6,-0 2.72,0.2 3.36,0.6c0.64,0.4 0.96,1.16 0.96,2.28c-0,1.28 -0.6,4.16 -1.8,8.64c-0.8,3.2 -1.44,5.98 -1.92,8.34c-0.48,2.36 -0.88,5.3 -1.2,8.82c2.16,-6.24 4.74,-11.52 7.74,-15.84c3,-4.32 6.08,-7.54 9.24,-9.66c3.16,-2.12 6.14,-3.18 8.94,-3.18c2.8,-0 4.78,0.64 5.94,1.92c1.16,1.28 1.74,3.24 1.74,5.88c-0,2.56 -0.76,7.2 -2.28,13.92c-0.64,2.88 -1.08,5.04 -1.32,6.48c4,-9.84 8.44,-17 13.32,-21.48c4.88,-4.48 9.44,-6.72 13.68,-6.72c5.2,-0 7.8,2.6 7.8,7.8c-0,3.12 -0.88,8.76 -2.64,16.92c-1.52,6.96 -2.28,11.56 -2.28,13.8c-0,3.2 1.16,4.8 3.48,4.8c1.6,-0 3.5,-0.98 5.7,-2.94c2.2,-1.96 5.14,-5.14 8.82,-9.54c0.96,-1.12 2.04,-1.68 3.24,-1.68c1.04,-0 1.86,0.48 2.46,1.44c0.6,0.96 0.9,2.28 0.9,3.96c-0,3.2 -0.76,5.68 -2.28,7.44c-3.44,4.24 -7.14,7.72 -11.1,10.44c-3.96,2.72 -8.46,4.08 -13.5,4.08c-4.08,-0 -7.16,-1.18 -9.24,-3.54c-2.08,-2.36 -3.12,-5.78 -3.12,-10.26c-0,-2.24 0.56,-6.24 1.68,-12c1.04,-5.04 1.56,-8.52 1.56,-10.44c-0,-1.28 -0.44,-1.92 -1.32,-1.92c-1.04,-0 -2.52,1.34 -4.44,4.02c-1.92,2.68 -3.84,6.22 -5.76,10.62c-1.92,4.4 -3.48,9.04 -4.68,13.92c-0.88,3.84 -1.9,6.4 -3.06,7.68c-1.16,1.28 -3.02,1.92 -5.58,1.92c-2.64,-0 -4.62,-1.26 -5.94,-3.78c-1.32,-2.52 -1.98,-5.58 -1.98,-9.18c-0,-3.04 0.4,-7.44 1.2,-13.2c0.64,-5.12 0.96,-8.48 0.96,-10.08c-0,-1.28 -0.44,-1.92 -1.32,-1.92c-1.2,-0 -2.72,1.44 -4.56,4.32c-1.84,2.88 -3.62,6.56 -5.34,11.04c-1.72,4.48 -3.1,8.88 -4.14,13.2c-0.88,3.76 -1.9,6.3 -3.06,7.62c-1.16,1.32 -2.98,1.98 -5.46,1.98Z" style="fill:#fff;fill-rule:nonzero;"/><path d="M340.177,85.583c1.04,-0 1.86,0.48 2.46,1.44c0.6,0.96 0.9,2.28 0.9,3.96c-0,3.2 -0.76,5.68 -2.28,7.44c-3.44,4.24 -7.18,7.72 -11.22,10.44c-4.04,2.72 -8.62,4.08 -13.74,4.08c-7.04,-0 -12.26,-3.2 -15.66,-9.6c-3.4,-6.4 -5.1,-14.68 -5.1,-24.84c-0,-9.76 1.26,-20.88 3.78,-33.36c2.52,-12.48 6.24,-23.2 11.16,-32.16c4.92,-8.96 10.78,-13.44 17.58,-13.44c3.84,-0 6.86,1.78 9.06,5.34c2.2,3.56 3.3,8.66 3.3,15.3c-0,9.52 -2.64,20.56 -7.92,33.12c-5.28,12.56 -12.44,25 -21.48,37.32c0.56,3.28 1.48,5.62 2.76,7.02c1.28,1.4 2.96,2.1 5.04,2.1c3.28,-0 6.16,-0.94 8.64,-2.82c2.48,-1.88 5.64,-5.1 9.48,-9.66c0.96,-1.12 2.04,-1.68 3.24,-1.68Zm-14.76,-74.16c-1.84,-0 -3.92,3.32 -6.24,9.96c-2.32,6.64 -4.36,14.88 -6.12,24.72c-1.76,9.84 -2.72,19.28 -2.88,28.32c5.68,-9.36 10.2,-18.74 13.56,-28.14c3.36,-9.4 5.04,-17.98 5.04,-25.74c-0,-6.08 -1.12,-9.12 -3.36,-9.12Z" style="fill:#fff;fill-rule:nonzero;"/><path d="M346.417,112.943c-4.56,-0 -8.26,-1.8 -11.1,-5.4c-2.84,-3.6 -4.26,-8.32 -4.26,-14.16c-0,-6.4 1.48,-12.46 4.44,-18.18c2.96,-5.72 6.9,-10.32 11.82,-13.8c4.92,-3.48 10.14,-5.22 15.66,-5.22c1.76,-0 2.94,0.34 3.54,1.02c0.6,0.68 1.1,1.9 1.5,3.66c1.52,-0.32 3.2,-0.48 5.04,-0.48c1.92,-0 3.4,0.48 4.44,1.44c1.04,0.96 1.56,2.32 1.56,4.08c-0,1.84 -0.4,5.04 -1.2,9.6c-0.88,4.88 -1.56,9.54 -2.04,13.98c-0.48,4.44 -0.72,9.42 -0.72,14.94c-0,3.04 -0.62,5.22 -1.86,6.54c-1.24,1.32 -3.26,1.98 -6.06,1.98c-2.72,-0 -4.74,-0.66 -6.06,-1.98c-1.32,-1.32 -1.98,-3.46 -1.98,-6.42l0.12,-1.92c-2.48,6.88 -6.76,10.32 -12.84,10.32Zm4.68,-12.12c2.24,-0 4.28,-1.56 6.12,-4.68c1.84,-3.12 3.48,-8.68 4.92,-16.68l2.28,-12.12c-3.28,0.08 -6.32,1.34 -9.12,3.78c-2.8,2.44 -5.04,5.66 -6.72,9.66c-1.68,4 -2.52,8.24 -2.52,12.72c-0,2.4 0.46,4.22 1.38,5.46c0.92,1.24 2.14,1.86 3.66,1.86Z" style="fill:#fff;fill-rule:nonzero;"/><path d="M472.897,85.583c1.04,-0 1.86,0.48 2.46,1.44c0.6,0.96 0.9,2.28 0.9,3.96c-0,3.2 -0.76,5.68 -2.28,7.44c-2.96,3.6 -7.14,6.92 -12.54,9.96c-5.4,3.04 -11.18,4.56 -17.34,4.56c-8.4,-0 -14.92,-2.28 -19.56,-6.84c-4.64,-4.56 -6.96,-10.8 -6.96,-18.72c-0,-5.52 1.16,-10.66 3.48,-15.42c2.32,-4.76 5.54,-8.54 9.66,-11.34c4.12,-2.8 8.78,-4.2 13.98,-4.2c4.64,-0 8.36,1.38 11.16,4.14c2.8,2.76 4.2,6.5 4.2,11.22c-0,5.52 -1.98,10.26 -5.94,14.22c-3.96,3.96 -10.66,7.1 -20.1,9.42c2,3.68 5.8,5.52 11.4,5.52c3.6,-0 7.7,-1.26 12.3,-3.78c4.6,-2.52 8.58,-5.82 11.94,-9.9c0.96,-1.12 2.04,-1.68 3.24,-1.68Zm-30.24,-17.4c-2.96,-0 -5.46,1.72 -7.5,5.16c-2.04,3.44 -3.06,7.6 -3.06,12.48l-0,0.24c4.72,-1.12 8.44,-2.8 11.16,-5.04c2.72,-2.24 4.08,-4.84 4.08,-7.8c-0,-1.52 -0.42,-2.74 -1.26,-3.66c-0.84,-0.92 -1.98,-1.38 -3.42,-1.38Z" style="fill:#fff;fill-rule:nonzero;"/><path d="M475.057,112.943c-3.04,-0 -5.18,-1.6 -6.42,-4.8c-1.24,-3.2 -1.86,-8.32 -1.86,-15.36c-0,-10.4 1.48,-20.28 4.44,-29.64c0.72,-2.32 1.9,-4.02 3.54,-5.1c1.64,-1.08 3.94,-1.62 6.9,-1.62c1.6,-0 2.72,0.2 3.36,0.6c0.64,0.4 0.96,1.16 0.96,2.28c-0,1.28 -0.6,4.16 -1.8,8.64c-0.8,3.2 -1.44,6 -1.92,8.4c-0.48,2.4 -0.88,5.36 -1.2,8.88c2.64,-6.88 5.6,-12.48 8.88,-16.8c3.28,-4.32 6.5,-7.4 9.66,-9.24c3.16,-1.84 6.06,-2.76 8.7,-2.76c5.2,-0 7.8,2.6 7.8,7.8c-0,3.12 -0.88,8.76 -2.64,16.92c-1.52,6.96 -2.28,11.56 -2.28,13.8c-0,3.2 1.16,4.8 3.48,4.8c1.6,-0 3.5,-0.98 5.7,-2.94c2.2,-1.96 5.14,-5.14 8.82,-9.54c0.96,-1.12 2.04,-1.68 3.24,-1.68c1.04,-0 1.86,0.48 2.46,1.44c0.6,0.96 0.9,2.28 0.9,3.96c-0,3.2 -0.76,5.68 -2.28,7.44c-3.44,4.24 -7.14,7.72 -11.1,10.44c-3.96,2.72 -8.46,4.08 -13.5,4.08c-4.08,-0 -7.16,-1.18 -9.24,-3.54c-2.08,-2.36 -3.12,-5.78 -3.12,-10.26c-0,-2.24 0.56,-6.24 1.68,-12c1.04,-5.04 1.56,-8.52 1.56,-10.44c-0,-1.28 -0.44,-1.92 -1.32,-1.92c-1.04,-0 -2.5,1.34 -4.38,4.02c-1.88,2.68 -3.8,6.22 -5.76,10.62c-1.96,4.4 -3.54,9.04 -4.74,13.92c-0.88,3.76 -1.9,6.3 -3.06,7.62c-1.16,1.32 -2.98,1.98 -5.46,1.98Z" style="fill:#fff;fill-rule:nonzero;"/><path d="M592.657,85.583c1.04,-0 1.86,0.48 2.46,1.44c0.6,0.96 0.9,2.28 0.9,3.96c-0,3.2 -0.76,5.68 -2.28,7.44c-3.68,4.24 -7.46,7.72 -11.34,10.44c-3.88,2.72 -8.3,4.08 -13.26,4.08c-4.08,-0 -7.16,-1.18 -9.24,-3.54c-2.08,-2.36 -3.12,-5.78 -3.12,-10.26c-0,-2.24 0.56,-6.24 1.68,-12c1.04,-5.04 1.56,-8.52 1.56,-10.44c-0,-1.28 -0.44,-1.92 -1.32,-1.92c-1.04,-0 -2.52,1.34 -4.44,4.02c-1.92,2.68 -3.84,6.22 -5.76,10.62c-1.92,4.4 -3.48,9.04 -4.68,13.92c-1.52,6.4 -5.28,9.6 -11.28,9.6c-2.4,-0 -3.98,-0.86 -4.74,-2.58c-0.76,-1.72 -1.14,-4.82 -1.14,-9.3c-0,-2.56 0.04,-4.6 0.12,-6.12l0.12,-9.6c-0,-12.32 1.26,-25.16 3.78,-38.52c2.52,-13.36 6.24,-24.58 11.16,-33.66c4.92,-9.08 10.82,-13.62 17.7,-13.62c3.68,-0 6.66,1.58 8.94,4.74c2.28,3.16 3.42,7.26 3.42,12.3c-0,8.08 -2.36,16.46 -7.08,25.14c-4.72,8.68 -12.4,18.82 -23.04,30.42c-0.24,4.16 -0.36,8.44 -0.36,12.84c2.64,-6.8 5.58,-12.34 8.82,-16.62c3.24,-4.28 6.44,-7.34 9.6,-9.18c3.16,-1.84 6.06,-2.76 8.7,-2.76c5.2,-0 7.8,2.6 7.8,7.8c-0,3.12 -0.88,8.76 -2.64,16.92c-1.52,6.96 -2.28,11.56 -2.28,13.8c-0,3.2 1.16,4.8 3.48,4.8c1.6,-0 3.5,-0.98 5.7,-2.94c2.2,-1.96 5.14,-5.14 8.82,-9.54c0.96,-1.12 2.04,-1.68 3.24,-1.68Zm-35.64,-74.16c-1.44,-0 -3.04,2.06 -4.8,6.18c-1.76,4.12 -3.46,9.68 -5.1,16.68c-1.64,7 -2.98,14.62 -4.02,22.86c4.96,-5.84 9.06,-12.2 12.3,-19.08c3.24,-6.88 4.86,-13.12 4.86,-18.72c-0,-2.56 -0.28,-4.52 -0.84,-5.88c-0.56,-1.36 -1.36,-2.04 -2.4,-2.04Z" style="fill:#fff;fill-rule:nonzero;"/><path d="M601.057,112.943c-4.96,-0 -8.92,-1.8 -11.88,-5.4c-2.96,-3.6 -4.44,-8.32 -4.44,-14.16c-0,-6.4 1.48,-12.46 4.44,-18.18c2.96,-5.72 6.9,-10.32 11.82,-13.8c4.92,-3.48 10.14,-5.22 15.66,-5.22c1.76,-0 2.94,0.34 3.54,1.02c0.6,0.68 1.1,1.9 1.5,3.66c1.68,-0.32 3.44,-0.48 5.28,-0.48c3.92,-0 5.88,1.4 5.88,4.2c-0,1.68 -0.6,5.68 -1.8,12c-1.84,9.2 -2.76,15.6 -2.76,19.2c-0,1.2 0.3,2.16 0.9,2.88c0.6,0.72 1.38,1.08 2.34,1.08c1.52,-0 3.36,-0.98 5.52,-2.94c2.16,-1.96 5.08,-5.14 8.76,-9.54c0.96,-1.12 2.04,-1.68 3.24,-1.68c1.04,-0 1.86,0.48 2.46,1.44c0.6,0.96 0.9,2.28 0.9,3.96c-0,3.2 -0.76,5.68 -2.28,7.44c-3.28,4.08 -6.76,7.52 -10.44,10.32c-3.68,2.8 -7.24,4.2 -10.68,4.2c-2.64,-0 -5.06,-0.9 -7.26,-2.7c-2.2,-1.8 -3.86,-4.26 -4.98,-7.38c-4.16,6.72 -9.4,10.08 -15.72,10.08Zm4.32,-12.12c1.76,-0 3.44,-1.04 5.04,-3.12c1.6,-2.08 2.76,-4.84 3.48,-8.28l4.44,-22.08c-3.36,0.08 -6.46,1.34 -9.3,3.78c-2.84,2.44 -5.1,5.66 -6.78,9.66c-1.68,4 -2.52,8.24 -2.52,12.72c-0,2.48 0.5,4.32 1.5,5.52c1,1.2 2.38,1.8 4.14,1.8Z" style="fill:#fff;fill-rule:nonzero;"/><path d="M651.217,112.943c-3.04,-0 -5.18,-1.6 -6.42,-4.8c-1.24,-3.2 -1.86,-8.32 -1.86,-15.36c-0,-10.4 1.48,-20.28 4.44,-29.64c0.72,-2.32 1.9,-4.02 3.54,-5.1c1.64,-1.08 3.94,-1.62 6.9,-1.62c1.6,-0 2.72,0.2 3.36,0.6c0.64,0.4 0.96,1.16 0.96,2.28c-0,1.28 -0.6,4.16 -1.8,8.64c-0.8,3.2 -1.44,6 -1.92,8.4c-0.48,2.4 -0.88,5.36 -1.2,8.88c2.64,-6.88 5.6,-12.48 8.88,-16.8c3.28,-4.32 6.5,-7.4 9.66,-9.24c3.16,-1.84 6.06,-2.76 8.7,-2.76c5.2,-0 7.8,2.6 7.8,7.8c-0,3.12 -0.88,8.76 -2.64,16.92c-1.52,6.96 -2.28,11.56 -2.28,13.8c-0,3.2 1.16,4.8 3.48,4.8c1.6,-0 3.5,-0.98 5.7,-2.94c2.2,-1.96 5.14,-5.14 8.82,-9.54c0.96,-1.12 2.04,-1.68 3.24,-1.68c1.04,-0 1.86,0.48 2.46,1.44c0.6,0.96 0.9,2.28 0.9,3.96c-0,3.2 -0.76,5.68 -2.28,7.44c-3.44,4.24 -7.14,7.72 -11.1,10.44c-3.96,2.72 -8.46,4.08 -13.5,4.08c-4.08,-0 -7.16,-1.18 -9.24,-3.54c-2.08,-2.36 -3.12,-5.78 -3.12,-10.26c-0,-2.24 0.56,-6.24 1.68,-12c1.04,-5.04 1.56,-8.52 1.56,-10.44c-0,-1.28 -0.44,-1.92 -1.32,-1.92c-1.04,-0 -2.5,1.34 -4.38,4.02c-1.88,2.68 -3.8,6.22 -5.76,10.62c-1.96,4.4 -3.54,9.04 -4.74,13.92c-0.88,3.76 -1.9,6.3 -3.06,7.62c-1.16,1.32 -2.98,1.98 -5.46,1.98Z" style="fill:#fff;fill-rule:nonzero;"/><path d="M725.137,112.943c-7.84,-0 -13.94,-2.22 -18.3,-6.66c-4.36,-4.44 -6.54,-10.3 -6.54,-17.58c-0,-6.48 1.28,-12.16 3.84,-17.04c2.56,-4.88 5.88,-8.64 9.96,-11.28c4.08,-2.64 8.36,-3.96 12.84,-3.96c4.4,-0 7.82,1.3 10.26,3.9c2.44,2.6 3.66,5.94 3.66,10.02c-0,3.36 -0.74,6.2 -2.22,8.52c-1.48,2.32 -3.42,3.48 -5.82,3.48c-1.52,-0 -2.74,-0.36 -3.66,-1.08c-0.92,-0.72 -1.38,-1.72 -1.38,-3c-0,-0.56 0.08,-1.2 0.24,-1.92c0.16,-0.72 0.28,-1.24 0.36,-1.56c0.4,-1.2 0.6,-2.32 0.6,-3.36c-0,-1.04 -0.26,-1.84 -0.78,-2.4c-0.52,-0.56 -1.26,-0.84 -2.22,-0.84c-1.84,-0 -3.56,0.82 -5.16,2.46c-1.6,1.64 -2.88,3.86 -3.84,6.66c-0.96,2.8 -1.44,5.88 -1.44,9.24c-0,9.28 4.04,13.92 12.12,13.92c3.28,-0 6.82,-1.1 10.62,-3.3c3.8,-2.2 7.54,-5.5 11.22,-9.9c0.96,-1.12 2.04,-1.68 3.24,-1.68c1.04,-0 1.86,0.48 2.46,1.44c0.6,0.96 0.9,2.28 0.9,3.96c-0,3.04 -0.76,5.52 -2.28,7.44c-3.76,4.64 -8.26,8.22 -13.5,10.74c-5.24,2.52 -10.3,3.78 -15.18,3.78Z" style="fill:#fff;fill-rule:nonzero;"/><path d="M799.897,85.583c1.04,-0 1.86,0.48 2.46,1.44c0.6,0.96 0.9,2.28 0.9,3.96c-0,3.2 -0.76,5.68 -2.28,7.44c-2.96,3.6 -7.14,6.92 -12.54,9.96c-5.4,3.04 -11.18,4.56 -17.34,4.56c-8.4,-0 -14.92,-2.28 -19.56,-6.84c-4.64,-4.56 -6.96,-10.8 -6.96,-18.72c-0,-5.52 1.16,-10.66 3.48,-15.42c2.32,-4.76 5.54,-8.54 9.66,-11.34c4.12,-2.8 8.78,-4.2 13.98,-4.2c4.64,-0 8.36,1.38 11.16,4.14c2.8,2.76 4.2,6.5 4.2,11.22c-0,5.52 -1.98,10.26 -5.94,14.22c-3.96,3.96 -10.66,7.1 -20.1,9.42c2,3.68 5.8,5.52 11.4,5.52c3.6,-0 7.7,-1.26 12.3,-3.78c4.6,-2.52 8.58,-5.82 11.94,-9.9c0.96,-1.12 2.04,-1.68 3.24,-1.68Zm-30.24,-17.4c-2.96,-0 -5.46,1.72 -7.5,5.16c-2.04,3.44 -3.06,7.6 -3.06,12.48l-0,0.24c4.72,-1.12 8.44,-2.8 11.16,-5.04c2.72,-2.24 4.08,-4.84 4.08,-7.8c-0,-1.52 -0.42,-2.74 -1.26,-3.66c-0.84,-0.92 -1.98,-1.38 -3.42,-1.38Z" style="fill:#fff;fill-rule:nonzero;"/><path d="M836.617,85.583c0.88,6.56 2.16,13.04 3.84,19.44c0.32,1.04 0.48,2.12 0.48,3.24c-0,3.6 -2.2,5.4 -6.6,5.4c-2.48,-0 -4.38,-0.68 -5.7,-2.04c-1.32,-1.36 -2.54,-3.92 -3.66,-7.68l-0.12,-0.48c-3.04,3.76 -5.78,6.28 -8.22,7.56c-2.44,1.28 -5.26,1.92 -8.46,1.92c-4.88,-0 -8.9,-1.82 -12.06,-5.46c-3.16,-3.64 -4.74,-8.38 -4.74,-14.22c-0,-6.4 1.36,-12.32 4.08,-17.76c2.72,-5.44 6.44,-9.9 11.16,-13.38c4.72,-3.48 10,-5.58 15.84,-6.3c1.52,-15.12 4.42,-28.28 8.7,-39.48c4.28,-11.2 9.98,-16.8 17.1,-16.8c3.44,-0 6.3,1.56 8.58,4.68c2.28,3.12 3.42,7.84 3.42,14.16c-0,8.8 -2.16,19.08 -6.48,30.84c-4.32,11.76 -10.04,23.88 -17.16,36.36Zm10.32,-74.28c-2.32,-0 -4.5,5.92 -6.54,17.76c-2.04,11.84 -3.42,24.72 -4.14,38.64c8.88,-19.2 13.32,-34.8 13.32,-46.8c-0,-3.04 -0.26,-5.4 -0.78,-7.08c-0.52,-1.68 -1.14,-2.52 -1.86,-2.52Zm-34.56,89.52c1.6,-0 3.14,-0.6 4.62,-1.8c1.48,-1.2 3.38,-3.52 5.7,-6.96c-0.8,-5.84 -1.2,-11.88 -1.2,-18.12c-0,-2.48 0.04,-4.4 0.12,-5.76c-4.4,1.28 -8.04,4.2 -10.92,8.76c-2.88,4.56 -4.32,9.6 -4.32,15.12c-0,5.84 2,8.76 6,8.76Z" style="fill:#fff;fill-rule:nonzero;"/></svg>